# xmcd
#
# Track frame offsets: 
#        150
#        17712
#        33424
#        45988
#        56972
#        72518
#        88160
#        100617
#        112951
#        125827
#        139497
#
# Disc length: 2027 seconds
#
# Revision: 0
# Processed by: cddbd v1.5.2PL0 Copyright (c) Steve Scherf et al.
# Submitted via: ExactAudioCopy v0.95b4
#
DISCID=9d07e90b
DTITLE=Copper Kettle - Poison On Your Mind
DYEAR=2008
DGENRE=Bluegrass
TTITLE0=By My Side
TTITLE1=Long Pine Box
TTITLE2=Poison On Your Mind
TTITLE3=Your His To Keep
TTITLE4=Wicked Heart
TTITLE5=Push On Thru
TTITLE6=Crying Quietly
TTITLE7=Flower
TTITLE8=Mourning Sun
TTITLE9=Black Crow Blues
TTITLE10=Beautiful Bird
EXTD=
EXTT0=
EXTT1=
EXTT2=
EXTT3=
EXTT4=
EXTT5=
EXTT6=
EXTT7=
EXTT8=
EXTT9=
EXTT10=
PLAYORDER=
